<svg width="15" height="18" viewBox="0 0 15 18" fill="none" xmlns="http://www.w3.org/2000/svg">
<path fill-rule="evenodd" clip-rule="evenodd" d="M7.15995 0C6.1291 0 5.14048 0.409501 4.41156 1.13842C3.68265 1.86734 3.27314 2.85596 3.27314 3.8868C3.27314 4.91765 3.68265 5.90627 4.41156 6.63519C5.14048 7.36411 6.1291 7.77361 7.15995 7.77361C8.19079 7.77361 9.17942 7.36411 9.90833 6.63519C10.6373 5.90627 11.0468 4.91765 11.0468 3.8868C11.0468 2.85596 10.6373 1.86734 9.90833 1.13842C9.17942 0.409501 8.19079 0 7.15995 0ZM4.50056 3.8868C4.50056 3.18149 4.78074 2.50506 5.27947 2.00633C5.77821 1.5076 6.45463 1.22741 7.15995 1.22741C7.86526 1.22741 8.54169 1.5076 9.04042 2.00633C9.53916 2.50506 9.81934 3.18149 9.81934 3.8868C9.81934 4.59212 9.53916 5.26855 9.04042 5.76728C8.54169 6.26601 7.86526 6.5462 7.15995 6.5462C6.45463 6.5462 5.77821 6.26601 5.27947 5.76728C4.78074 5.26855 4.50056 4.59212 4.50056 3.8868ZM7.15995 9.00102C5.26728 9.00102 3.52272 9.43143 2.23066 10.1581C0.957427 10.8749 4.57431e-05 11.9599 4.57431e-05 13.297V13.3804C-0.000772532 14.3313 -0.00159088 15.5243 1.04498 16.3769C1.55968 16.7959 2.28058 17.0946 3.25432 17.291C4.22971 17.489 5.50212 17.5929 7.15995 17.5929C8.81777 17.5929 10.0894 17.489 11.0664 17.291C12.0401 17.0946 12.7602 16.7959 13.2757 16.3769C14.3223 15.5243 14.3207 14.3313 14.3199 13.3804V13.297C14.3199 11.9599 13.3625 10.8749 12.0901 10.1581C10.7972 9.43143 9.05344 9.00102 7.15995 9.00102ZM1.22746 13.297C1.22746 12.6006 1.73642 11.8445 2.83209 11.2284C3.90894 10.6228 5.43748 10.2284 7.16077 10.2284C8.88242 10.2284 10.411 10.6228 11.4878 11.2284C12.5843 11.8445 13.0924 12.6006 13.0924 13.297C13.0924 14.3673 13.0597 14.9695 12.5 15.4245C12.1972 15.6716 11.6899 15.913 10.8225 16.0881C9.95763 16.2632 8.77522 16.3655 7.15995 16.3655C5.54467 16.3655 4.36145 16.2632 3.49735 16.0881C2.62998 15.913 2.12265 15.6716 1.81989 15.4253C1.26019 14.9695 1.22746 14.3673 1.22746 13.297Z" fill="black"/>
</svg>
